<svg width="21" height="21" viewBox="0 0 21 21" fill="none" xmlns="http://www.w3.org/2000/svg">
<g clip-path="url(#clip0)">
<path d="M18.4208 9.88563C18.2795 9.87492 18.815 9.74857 11.6932 11.5449C11.4017 11.6184 11.1973 11.8808 11.1973 12.1813C11.1973 17.5524 11.1971 16.3258 11.1971 17.2319C9.93661 16.7411 8.57251 17.6769 8.57251 19.0284C8.57251 19.5408 8.76977 20.0288 9.1279 20.4025C9.89154 21.1992 11.1083 21.1992 11.872 20.4025C12.2301 20.0288 12.4274 19.5408 12.4274 19.0284V15.2961L17.7586 13.9175V15.9196C16.5169 15.4361 15.1746 16.337 15.1349 17.656C15.104 18.6835 15.9001 19.5685 16.9257 19.6389C18.1273 19.7213 18.9889 18.8649 18.9889 17.5063C18.9889 17.4563 18.991 10.4862 18.985 10.431C18.9536 10.1462 18.7239 9.90937 18.4208 9.88563V9.88563Z" fill="black"/>
<path d="M9.84384 8.89911C10.4101 8.89911 10.8691 8.44009 10.8691 7.87387C10.8691 7.30765 10.4101 6.84863 9.84384 6.84863C9.27762 6.84863 8.8186 7.30765 8.8186 7.87387C8.8186 8.44009 9.27762 8.89911 9.84384 8.89911Z" fill="black"/>
<path d="M9.96703 15.7042V11.1907C9.96703 10.9088 10.1585 10.6631 10.4318 10.5942L17.6248 8.78037C18.1639 4.08499 14.496 0 9.84379 0C5.52476 0 2.01099 3.53219 2.01099 7.87382C2.01099 12.3528 5.69257 15.7769 9.96703 15.7042V15.7042ZM7.58827 7.87382C7.58827 6.63012 8.6001 5.6183 9.84379 5.6183C11.0875 5.6183 12.0993 6.63012 12.0993 7.87382C12.0993 9.11751 11.0875 10.1293 9.84379 10.1293C8.6001 10.1293 7.58827 9.11751 7.58827 7.87382Z" fill="black"/>
</g>
<defs>
<clipPath id="clip0">
<rect width="21" height="21" fill="white"/>
</clipPath>
</defs>
</svg>
