<svg width="24" height="24" viewBox="0 0 24 24" fill="none" xmlns="http://www.w3.org/2000/svg">
<g clip-path="url(#clip0)">
<path fill-rule="evenodd" clip-rule="evenodd" d="M0.0797734 15.4468L1.68854 8.61035C2.12177 6.76868 3.81934 4.875 6.40442 4.875H17.5953C19.4873 4.875 21.7194 6.09393 22.3113 8.61035L23.9201 15.4468C24.3568 17.3026 22.9482 19.0829 21.0393 19.0829C20.2281 19.0829 19.4651 18.6508 19.0482 17.9555L17.809 15.8904C17.5971 15.537 17.2097 15.3177 16.7977 15.3177H7.20239C6.7904 15.3177 6.40277 15.5372 6.19092 15.8906L4.95184 17.9553C4.53473 18.6508 3.77173 19.0829 2.95966 19.0829C1.05371 19.0829 -0.357299 17.3044 0.0797734 15.4468ZM15.012 10.7994H15.8151V11.6025C15.8151 11.9907 16.1299 12.3054 16.5182 12.3054C16.9064 12.3054 17.2212 11.9907 17.2212 11.6025V10.7994H18.0243C18.4125 10.7994 18.7272 10.4846 18.7272 10.0964C18.7272 9.70807 18.4125 9.39331 18.0243 9.39331H17.2212V8.59021C17.2212 8.20203 16.9064 7.88727 16.5182 7.88727C16.1299 7.88727 15.8151 8.20203 15.8151 8.59021V9.39331H15.012C14.6238 9.39331 14.3091 9.70807 14.3091 10.0964C14.3091 10.4846 14.6238 10.7994 15.012 10.7994ZM8.98785 10.7994C9.37585 10.7994 9.69079 10.4844 9.69079 10.0964C9.69079 9.70825 9.37567 9.39331 8.98785 9.39331C8.59967 9.39331 8.28473 9.70825 8.28473 10.0964C8.28473 10.4844 8.59967 10.7994 8.98785 10.7994ZM7.48163 12.3054C7.86963 12.3054 8.18475 11.9905 8.18475 11.6025C8.18475 11.2145 7.86963 10.8994 7.48163 10.8994C7.09363 10.8994 6.77869 11.2145 6.77869 11.6025C6.77869 11.9905 7.09363 12.3054 7.48163 12.3054ZM7.48163 9.29333C7.86963 9.29333 8.18475 8.97839 8.18475 8.59021C8.18475 8.20221 7.86963 7.88727 7.48163 7.88727C7.09363 7.88727 6.77869 8.20221 6.77869 8.59021C6.77869 8.97839 7.09363 9.29333 7.48163 9.29333ZM5.97559 10.7994C6.36359 10.7994 6.67871 10.4844 6.67871 10.0964C6.67871 9.70825 6.36359 9.39331 5.97559 9.39331C5.58759 9.39331 5.27264 9.70825 5.27264 10.0964C5.27264 10.4844 5.58759 10.7994 5.97559 10.7994Z" fill="black"/>
</g>
<defs>
<clipPath id="clip0">
<rect width="24" height="24" fill="white" transform="matrix(-1 0 0 1 24 0)"/>
</clipPath>
</defs>
</svg>
