<svg width="18" height="18" viewBox="0 0 18 18" fill="none" xmlns="http://www.w3.org/2000/svg">
<path d="M18 9C18 4.02942 13.9706 0 9 0C4.02942 0 0 4.02942 0 9C0 13.9706 4.02942 18 9 18H18V16.5H13.9688C16.485 14.8341 17.9989 12.0179 18 9ZM13.4084 15.0677C12.4032 15.798 10.9958 15.5753 10.2656 14.5697C9.5354 13.5645 9.75806 12.1575 10.7633 11.4269C11.7689 10.6967 13.1759 10.9193 13.9061 11.9249C14.6367 12.9302 14.4137 14.3372 13.4084 15.0677ZM13.2979 5.23792C14.4796 4.85376 15.7489 5.50049 16.1331 6.68225C16.5168 7.86438 15.8701 9.13367 14.6884 9.51746C13.5066 9.90161 12.2373 9.25488 11.8531 8.07312C11.4694 6.89136 12.1161 5.6217 13.2979 5.23792ZM9 1.5C10.2426 1.5 11.25 2.50745 11.25 3.75C11.25 4.99255 10.2426 6 9 6C7.75745 6 6.75 4.99255 6.75 3.75C6.75 2.50745 7.75745 1.5 9 1.5ZM1.86694 6.68225C2.2511 5.50049 3.52039 4.85376 4.70215 5.23755C5.88391 5.6217 6.53064 6.89099 6.14685 8.07275C5.7627 9.25452 4.49341 9.90125 3.31165 9.51746C2.12988 9.13367 1.48315 7.86438 1.86694 6.68225ZM7.73438 14.5697C7.00415 15.5753 5.5968 15.798 4.59155 15.0677C3.5863 14.3372 3.36328 12.9302 4.09387 11.9249C4.8241 10.9197 6.23145 10.6967 7.23669 11.4272C8.24194 12.1575 8.4646 13.5645 7.73438 14.5697ZM8.25 9C8.25 8.58582 8.58582 8.25 9 8.25C9.41418 8.25 9.75 8.58582 9.75 9C9.75 9.41418 9.41418 9.75 9 9.75C8.58582 9.75 8.25 9.41418 8.25 9Z" fill="black"/>
</svg>
