<svg width="89" height="89" viewBox="0 0 89 89" fill="none" xmlns="http://www.w3.org/2000/svg">
<g clip-path="url(#clip0)">
<path d="M32.3637 0H8.09098C3.62859 0 0 3.62859 0 8.09098V32.3637C0 36.8259 3.62859 40.4547 8.09098 40.4547H32.3637C36.8259 40.4547 40.4547 36.8261 40.4547 32.3637V8.09098C40.4545 3.62859 36.8259 0 32.3637 0Z" fill="black"/>
<path d="M80.9077 0H56.6349C52.1725 0 48.5439 3.62859 48.5439 8.09098V32.3637C48.5439 36.8259 52.1725 40.4547 56.6349 40.4547H80.9077C85.3699 40.4547 88.9986 36.8261 88.9986 32.3637V8.09098C88.9985 3.62859 85.3699 0 80.9077 0Z" fill="black"/>
<path d="M32.3637 48.5455H8.09098C3.62859 48.5455 0 52.1741 0 56.6365V80.9092C0 85.3714 3.62859 89.0002 8.09098 89.0002H32.3637C36.8259 89.0002 40.4547 85.3716 40.4547 80.9092V56.6365C40.4545 52.1741 36.8259 48.5455 32.3637 48.5455Z" fill="black"/>
<path d="M78.8874 64.727H72.8192V58.6588C72.8192 57.5407 71.9144 56.636 70.7964 56.636H66.751C65.6329 56.636 64.7282 57.5407 64.7282 58.6588V64.727H58.66C57.5419 64.727 56.6372 65.6317 56.6372 66.7497V70.7951C56.6372 71.9132 57.5419 72.8179 58.66 72.8179H64.7282V78.8861C64.7282 80.0042 65.6329 80.9089 66.751 80.9089H70.7964C71.9144 80.9089 72.8192 80.0042 72.8192 78.8861V72.8179H78.8874C80.0054 72.8179 80.9101 71.9132 80.9101 70.7951V66.7497C80.9101 65.6317 80.0054 64.727 78.8874 64.727Z" fill="black"/>
</g>
<defs>
<clipPath id="clip0">
<rect width="89" height="89" fill="white"/>
</clipPath>
</defs>
</svg>
