<svg width="87" height="88" viewBox="0 0 87 88" fill="none" xmlns="http://www.w3.org/2000/svg">
<rect width="87" height="88" rx="43.5" fill="black"/>
<path d="M31.2562 45.1032C30.7087 45.1753 30.2648 45.6815 30.2648 46.2338V50.4982C30.2648 51.457 29.0566 52.0253 28.4829 51.3364L24.3757 46.4055C24.1883 46.1804 23.8957 46.0723 23.5853 46.1131L19.9914 46.5863C19.4439 46.6584 19 47.1645 19 47.7168V63.9168C19 64.4691 19.4439 64.8584 19.9914 64.7863L23.7312 64.2939C24.2787 64.2218 24.7226 63.7157 24.7226 63.1634V58.5883C24.7226 57.6268 25.9366 57.0595 26.5078 57.754L30.7923 62.9635C30.9795 63.1912 31.2736 63.3009 31.586 63.2598L34.996 62.8109C35.5435 62.7388 35.9874 62.2326 35.9874 61.6804V45.4804C35.9874 44.9281 35.5435 44.5388 34.996 44.6109L31.2562 45.1032Z" fill="white"/>
<path d="M50.0901 47.9537C50.6377 47.8816 51.0816 47.3755 51.0816 46.8232V43.4932C51.0816 42.9409 50.6377 42.5516 50.0901 42.6237L39.8029 43.978C39.2554 44.0501 38.8115 44.5563 38.8115 45.1086V61.3086C38.8115 61.8609 39.2554 62.2501 39.8029 62.178L43.9035 61.6382C44.4511 61.5661 44.895 61.0599 44.895 60.5077V56.6837C44.895 56.1314 45.3389 55.6252 45.8864 55.5531L49.4199 55.0879C49.9675 55.0159 50.4114 54.5097 50.4114 53.9574V50.8354C50.4114 50.2831 49.9675 49.8938 49.4199 49.9659L45.8487 50.4361C45.322 50.5054 44.895 50.131 44.895 49.5997C44.895 49.0684 45.322 48.5814 45.8487 48.5121L50.0901 47.9537Z" fill="white"/>
<path d="M68.0555 41.2585C68.0555 40.7062 67.6116 40.317 67.0641 40.389L53.2711 42.2049C52.7235 42.277 52.2796 42.7832 52.2796 43.3354V46.6134C52.2796 47.1657 52.7235 47.555 53.2711 47.4829L56.1602 47.1026C56.7077 47.0305 57.1516 47.4198 57.1516 47.972V58.894C57.1516 59.4463 57.5955 59.8356 58.143 59.7635L62.1921 59.2304C62.7397 59.1584 63.1836 58.6522 63.1836 58.0999V47.1779C63.1836 46.6256 63.6274 46.1195 64.175 46.0474L67.0641 45.667C67.6116 45.595 68.0555 45.0888 68.0555 44.5365V41.2585Z" fill="white"/>
<path d="M29.8358 40.6598C29.9801 41.0328 30.3508 41.244 30.7653 41.1894L31.9646 41.0316C32.6675 40.939 33.1472 40.1584 32.8837 39.5357L27.9242 27.8153C27.7727 27.4574 27.4091 27.258 27.005 27.3112L25.4381 27.5174C25.0305 27.5711 24.6644 27.871 24.5153 28.2733L19.696 41.2811C19.4405 41.9708 19.92 42.6173 20.6188 42.5253L21.7472 42.3767C22.1641 42.3218 22.5365 42.0097 22.679 41.5958L23.1815 40.1357C23.324 39.7218 23.6963 39.4097 24.1133 39.3548L28.3887 38.7919C28.8032 38.7374 29.174 38.9486 29.3182 39.3216L29.8358 40.6598ZM25.3176 33.8936C25.6354 32.9773 26.8616 32.8158 27.1794 33.6485L27.633 34.8369C27.8701 35.4583 27.3912 36.2129 26.7021 36.3036L25.795 36.423C25.1059 36.5137 24.6269 35.8852 24.8641 35.2014L25.3176 33.8936Z" fill="white"/>
<path d="M39.6687 40.3458C42.7834 39.9358 44.8395 37.6528 44.8395 34.6549V29.2485C44.8395 28.6963 44.3957 28.307 43.8481 28.3791L42.8588 28.5093C42.3112 28.5814 41.8673 29.0876 41.8673 29.6398V34.7177C41.8673 36.2782 41.053 37.33 39.6687 37.5122C38.3047 37.6918 37.4701 36.8777 37.4701 35.2966V30.2187C37.4701 29.6665 37.0262 29.2772 36.4786 29.3493L35.4893 29.4795C34.9417 29.5516 34.4978 30.0578 34.4978 30.61V36.0164C34.4978 39.0143 36.5743 40.7532 39.6687 40.3458Z" fill="white"/>
<path d="M52.9177 35.6037C51.8184 35.7484 51.2077 35.2128 51.2077 34.1451V30.8331C51.2077 30.2808 51.6516 29.7747 52.1991 29.7026L53.2088 29.5696C53.7564 29.4975 54.2002 28.9914 54.2002 28.4391V28.0162C54.2002 27.4639 53.7564 27.0746 53.2088 27.1467L52.1584 27.285C51.6108 27.3571 51.1669 26.9678 51.1669 26.4155V24.9424C51.1669 24.7206 50.9887 24.5643 50.7688 24.5933C50.6591 24.6077 50.5543 24.6672 50.4791 24.7576L46.3877 29.6747C46.3062 29.7727 46.2608 29.8941 46.2608 30.014C46.2608 30.2738 46.4695 30.4569 46.7271 30.423L47.2481 30.3544C47.7934 30.2826 48.2354 30.6703 48.2354 31.2203V34.9471C48.2354 37.3905 49.7216 38.6938 52.1441 38.3749L53.2699 38.2267C53.8174 38.1546 54.2613 37.6484 54.2613 37.0961V36.4268C54.2613 35.8745 53.8174 35.4852 53.2699 35.5573L52.9177 35.6037Z" fill="white"/>
<path d="M61.4029 37.4845C64.8026 37.0369 67.3473 34.1763 67.3473 30.8293C67.3473 27.4824 64.8026 25.3123 61.4029 25.7599C58.0032 26.2075 55.4584 29.0476 55.4584 32.3945C55.4584 35.7415 58.0032 37.932 61.4029 37.4845ZM61.4029 34.6509C59.6928 34.876 58.4714 33.8048 58.4714 31.9979C58.4714 30.2115 59.6928 28.7981 61.4029 28.573C63.1129 28.3479 64.3344 29.4396 64.3344 31.226C64.3344 33.0329 63.1129 34.4257 61.4029 34.6509Z" fill="white"/>
</svg>
