<svg width="111" height="111" viewBox="0 0 111 111" fill="none" xmlns="http://www.w3.org/2000/svg">
<g clip-path="url(#clip0)">
<path d="M110.035 24.9077C109.171 23.8012 107.845 23.1545 106.441 23.1545H19.6513L18.3612 8.78237C18.1502 6.43205 16.1804 4.63116 13.8208 4.63116H4.55866C2.04098 4.63116 0 6.67214 0 9.18983C0 11.7075 2.04098 13.7485 4.55866 13.7485H9.65308L14.6498 69.4161C14.6509 69.4816 14.6476 69.5461 14.6513 69.6121C14.6615 69.7871 14.6843 69.9581 14.7134 70.1266L14.8962 72.1619C14.8997 72.2003 14.9036 72.2388 14.9081 72.2767C15.4621 77.0764 17.9149 81.235 21.4618 84.0446C19.624 86.3917 18.5242 89.3429 18.5242 92.548C18.5242 100.169 24.7242 106.369 32.3448 106.369C39.9656 106.369 46.1656 100.169 46.1656 92.548C46.1656 90.8972 45.8736 89.3136 45.3405 87.8446H70.2907C69.7573 89.3136 69.4656 90.8972 69.4656 92.548C69.4656 100.169 75.6656 106.369 83.2864 106.369C90.9071 106.369 97.1071 100.169 97.1071 92.548C97.1071 84.9273 90.9071 78.7273 83.2864 78.7273H32.3756C28.9128 78.7273 25.8952 76.6381 24.5927 73.5942L97.4462 69.3125C99.4351 69.1957 101.118 67.8004 101.601 65.8675L110.864 28.8186C111.204 27.457 110.898 26.0143 110.035 24.9077Z" fill="black"/>
</g>
<defs>
<clipPath id="clip0">
<rect width="111" height="111" fill="white"/>
</clipPath>
</defs>
</svg>
