<svg width="78" height="78" viewBox="0 0 78 78" fill="none" xmlns="http://www.w3.org/2000/svg">
<path d="M77.729 38.597C77.729 59.8488 60.501 77.0768 39.2492 77.0768C17.9973 77.0768 0.769348 59.8488 0.769348 38.597C0.769348 17.3452 17.9973 0.117188 39.2492 0.117188C60.501 0.117188 77.729 17.3452 77.729 38.597Z" fill="black"/>
<path d="M51.4731 17.647C51.4731 16.3443 50.4133 15.2845 49.1106 15.2845C47.808 15.2845 46.7484 16.3443 46.7484 17.647C46.7484 18.2732 46.9937 18.843 47.393 19.2662C46.6828 20.0606 45.6516 20.562 44.5048 20.562C42.6485 20.562 41.0937 19.2497 40.7175 17.5044C41.1519 17.0757 41.4216 16.4807 41.4216 15.8238C41.4216 14.5212 40.3618 13.4613 39.0591 13.4613C37.7565 13.4613 36.6967 14.5212 36.6967 15.8238C36.6967 16.4807 36.9666 17.0757 37.4007 17.5044C37.0245 19.2497 35.4698 20.562 33.6134 20.562C32.4667 20.562 31.4354 20.0606 30.7253 19.2662C31.1246 18.843 31.3701 18.2732 31.3701 17.647C31.3701 16.3443 30.3103 15.2845 29.0076 15.2845C27.705 15.2845 26.6451 16.3443 26.6451 17.647C26.6451 18.776 27.4413 19.7219 28.5015 19.9542C28.6279 20.9978 28.8255 22.1788 29.134 23.3217C29.4981 24.6707 30.7926 25.4787 32.1899 25.4787H45.9283C47.3256 25.4787 48.6202 24.6707 48.9843 23.3217C49.2928 22.1789 49.4903 20.9978 49.6168 19.9542C50.677 19.7217 51.4731 18.776 51.4731 17.647Z" fill="white"/>
<path d="M19.9676 38.7683C19.6349 38.8121 19.3652 39.1197 19.3652 39.4553V40.3567C19.3652 40.6923 19.6349 40.9289 19.9676 40.885L20.9347 40.7577C21.3664 40.7009 21.623 41.1127 21.2707 41.4108C20.8659 41.7532 20.3101 41.9945 19.6774 42.0778C18.1684 42.2765 17.1625 41.3243 17.1625 39.6799C17.1625 38.0356 18.1684 36.8185 19.6774 36.6199C20.5106 36.5102 21.3068 36.7906 21.7338 37.3163C21.8768 37.4923 22.0877 37.6146 22.3281 37.5829L25.5178 37.163C25.8857 37.1145 26.1699 36.7458 26.0699 36.4019C25.3451 33.9087 22.7904 32.4664 19.6774 32.8763C15.7577 33.3923 13 36.4319 13 40.2279C13 44.024 15.7577 46.3375 19.6774 45.8214C23.4541 45.3242 26.0389 42.4372 26.2837 38.545C26.3049 38.2073 26.033 37.9698 25.7002 38.0136L19.9676 38.7683Z" fill="white"/>
<path d="M34.6258 43.0754C34.7039 43.3197 34.9372 43.4626 35.2014 43.4278L38.3581 43.0122C38.7846 42.956 39.0761 42.4829 38.9172 42.1045L34.5273 31.6524C34.4356 31.4341 34.2143 31.3123 33.9682 31.3447L30.7255 31.7716C30.4789 31.8041 30.2572 31.9849 30.1659 32.228L25.8072 43.8319C25.6495 44.2517 25.941 44.6469 26.3669 44.5909L29.3915 44.1927C29.6536 44.1582 29.8856 43.9567 29.9654 43.6944L30.2352 42.8074C30.315 42.5451 30.547 42.3437 30.8091 42.3092L33.7925 41.9164C34.0567 41.8816 34.29 42.0245 34.3681 42.2687L34.6258 43.0754ZM33.2013 38.3296C33.3423 38.707 33.0514 39.1625 32.6343 39.2175L31.9674 39.3052C31.5515 39.36 31.2607 38.9832 31.3995 38.5695L31.7305 37.5832C31.9196 37.0199 32.6739 36.9189 32.8654 37.4312L33.2013 38.3296Z" fill="white"/>
<path d="M54.8629 40.8393C55.2302 40.7909 55.512 40.4252 55.459 40.0655L53.8656 29.2452C53.8224 28.9523 53.5686 28.7643 53.2694 28.8037L50.198 29.208C49.9573 29.2397 49.7397 29.4129 49.6446 29.6484L47.8457 34.1021C47.6358 34.6218 46.9433 34.7103 46.7371 34.2439L44.979 30.2668C44.8849 30.054 44.6661 29.9363 44.4238 29.9682L41.3549 30.3722C41.0561 30.4116 40.8024 30.666 40.7589 30.9699L39.1498 42.2118C39.0962 42.5858 39.3782 42.8779 39.7458 42.8295L42.5672 42.458C42.8743 42.4176 43.1322 42.1507 43.1661 41.8385L43.5452 38.337C43.6124 37.7167 44.4344 37.4733 44.6907 37.9978L46.4483 41.5948C46.547 41.7966 46.7603 41.906 46.995 41.8751L47.6112 41.794C47.8467 41.763 48.0606 41.5965 48.1588 41.3677L49.9144 37.278C50.1682 36.6868 50.9883 36.7089 51.0602 37.3088L51.4725 40.7498C51.5086 41.0507 51.7656 41.2471 52.0708 41.2069L54.8629 40.8393Z" fill="white"/>
<path d="M61.0751 36.7327C60.7424 36.7765 60.4727 36.5399 60.4727 36.2043V36.0902C60.4727 35.7546 60.7424 35.447 61.0751 35.4032L63.7379 35.0526C64.0706 35.0088 64.3403 34.7012 64.3403 34.3656V32.5721C64.3403 32.2365 64.0706 31.9999 63.7379 32.0437L61.0751 32.3943C60.7424 32.4381 60.4727 32.2016 60.4727 31.8659V31.7518C60.4727 31.4162 60.7424 31.1086 61.0751 31.0648L64.1888 30.6549C64.5215 30.6111 64.7913 30.3035 64.7913 29.9679V27.8945C64.7913 27.5589 64.5215 27.3223 64.1888 27.3661L57.0861 28.3012C56.7533 28.345 56.4836 28.6526 56.4836 28.9882V40.0183C56.4836 40.3539 56.7533 40.5904 57.0861 40.5466L64.2755 39.6001C64.6082 39.5563 64.878 39.2487 64.878 38.9131V36.8397C64.878 36.5041 64.6082 36.2675 64.2755 36.3113L61.0751 36.7327Z" fill="white"/>
<path d="M22.6922 59.4009C25.9606 58.9706 28.4592 56.6167 29.0895 53.4924C29.1631 53.1278 28.8813 52.8482 28.5219 52.8955L25.5003 53.2933C25.2176 53.3305 24.9796 53.5636 24.8734 53.8419C24.5004 54.8199 23.6825 55.5269 22.7095 55.655C21.27 55.8445 20.2988 54.8703 20.2988 53.2434C20.2988 51.599 21.27 50.3691 22.7095 50.1795C23.6282 50.0586 24.4423 50.5054 24.8678 51.3054C24.985 51.5257 25.2108 51.6696 25.4723 51.6351L28.474 51.2399C28.8381 51.192 29.1212 50.8301 29.0383 50.4834C28.3595 47.6445 25.9005 46.0333 22.6922 46.4557C18.8072 46.9672 15.9975 50.0661 15.9975 53.8097C15.9975 57.5533 18.8072 59.9123 22.6922 59.4009Z" fill="white"/>
<path d="M36.511 57.5816C40.6735 57.0336 43.4485 54.0792 43.4485 50.1957C43.4485 46.3121 40.6735 44.0884 36.511 44.6364C32.3485 45.1844 29.5735 48.1388 29.5735 52.0223C29.5735 55.9059 32.3485 58.1296 36.511 57.5816ZM36.511 53.838C34.9327 54.0458 33.8747 53.1005 33.8747 51.4561C33.8747 49.8117 34.9327 48.5878 36.511 48.38C38.0893 48.1722 39.1473 49.1176 39.1473 50.7619C39.1473 52.4063 38.0893 53.6302 36.511 53.838Z" fill="white"/>
<path d="M44.4493 55.5789C44.4493 55.9146 44.719 56.1511 45.0518 56.1073L47.9747 55.7225C48.3074 55.6787 48.5771 55.3711 48.5771 55.0355V44.0054C48.5771 43.6698 48.3074 43.4333 47.9747 43.4771L45.0518 43.8619C44.719 43.9057 44.4493 44.2133 44.4493 44.5489V55.5789Z" fill="white"/>
<path d="M58.3138 42.1159C57.9811 42.1597 57.7113 42.4673 57.7113 42.8029V45.9313C57.7113 46.5139 56.9772 46.8592 56.6285 46.4407L53.7296 42.9603C53.6157 42.8236 53.438 42.7578 53.2493 42.7827L50.7346 43.1137C50.4018 43.1575 50.1321 43.4651 50.1321 43.8007V54.8308C50.1321 55.1664 50.4018 55.403 50.7346 55.3591L53.38 55.0109C53.7127 54.9671 53.9824 54.6595 53.9824 54.3239V50.9847C53.9824 50.4004 54.7201 50.0557 55.0672 50.4777L58.0856 54.1478C58.1994 54.2861 58.3781 54.3529 58.5679 54.3279L60.9592 54.013C61.2919 53.9692 61.5617 53.6617 61.5617 53.3261V42.296C61.5617 41.9604 61.2919 41.7238 60.9592 41.7676L58.3138 42.1159Z" fill="white"/>
</svg>
