<svg width="147" height="52" viewBox="0 0 147 52" fill="none" xmlns="http://www.w3.org/2000/svg">
<path d="M72.5095 20.5457C70.9839 20.5457 69.493 21.1158 68.4008 22.2041C67.3087 23.2924 66.7539 24.7953 66.7539 26.2982C66.7539 27.8184 67.2913 29.304 68.3662 30.4096C69.441 31.5152 70.9319 32.0853 72.4575 32.0853C73.9831 32.0853 75.474 31.5152 76.5662 30.4269C77.6584 29.3386 78.2131 27.8357 78.2131 26.3328C78.2131 24.8126 77.6757 23.327 76.6009 22.2214C75.5087 21.1331 74.0351 20.5457 72.5095 20.5457ZM75.5607 26.9892C75.526 27.1965 75.4567 27.4038 75.3873 27.6111C75.318 27.8011 75.214 27.9912 75.11 28.1639C75.0059 28.3366 74.8846 28.4921 74.7459 28.6303C74.6072 28.7685 74.4512 28.8894 74.2952 29.0104C74.1218 29.114 73.9484 29.2177 73.7577 29.2868C73.567 29.3731 73.359 29.425 73.151 29.4595C72.9429 29.4941 72.7176 29.5113 72.5095 29.5113C72.2842 29.5113 72.0761 29.4941 71.8681 29.4422C71.6601 29.4077 71.452 29.3386 71.2613 29.2695C71.0706 29.2004 70.8973 29.0967 70.7239 28.9931C70.5679 28.8894 70.4118 28.7512 70.2732 28.6131C70.1345 28.4749 70.0131 28.3194 69.9091 28.1466C69.8051 27.9739 69.7011 27.7839 69.6317 27.5938C69.545 27.3865 69.493 27.1792 69.4584 26.972C69.4237 26.7474 69.4063 26.5228 69.4063 26.2982C69.4063 26.0737 69.4237 25.8491 69.4757 25.6245C69.5104 25.4172 69.5797 25.2099 69.6491 25.0026C69.7184 24.8126 69.8224 24.6226 69.9264 24.4498C70.0304 24.2771 70.1518 24.1216 70.2905 23.9834C70.4292 23.8452 70.5852 23.7243 70.7412 23.6034C70.9146 23.4997 71.088 23.3961 71.2787 23.327C71.4693 23.2406 71.6774 23.1888 71.8854 23.1542C72.0935 23.1197 72.3188 23.1024 72.5269 23.1024C72.7522 23.1024 72.9603 23.1197 73.1683 23.1715C73.3763 23.2061 73.5844 23.2752 73.7751 23.3443C73.9658 23.4134 74.1391 23.517 74.3125 23.6206C74.4685 23.7243 74.6245 23.8625 74.7632 24.0007C74.9019 24.1389 75.0233 24.2944 75.1273 24.4671C75.2313 24.6399 75.3353 24.8299 75.4047 25.0199C75.4914 25.2272 75.5434 25.4345 75.578 25.6418C75.6127 25.8664 75.63 26.0909 75.63 26.3155C75.6127 26.5573 75.5954 26.7647 75.5607 26.9892Z" fill="white"/>
<path d="M51.0127 16.1061C49.5045 14.8969 47.7535 14.0504 45.8639 13.6013C44.789 13.3422 43.6968 13.2212 42.5873 13.1867C41.7725 13.1521 40.9404 13.1694 40.1256 13.1694H28.4583C27.6435 13.1694 26.8114 13.1694 25.9966 13.1867C24.8871 13.2212 23.8122 13.3422 22.72 13.6013C20.8304 14.0504 19.0968 14.8969 17.5885 16.1061C14.5373 18.5419 12.769 22.2214 12.769 26.1255C12.769 30.0296 14.5373 33.7091 17.5885 36.1448C19.0968 37.3541 20.8477 38.2005 22.7374 38.6497C23.8122 38.9088 24.9044 39.0297 26.0139 39.0643C26.8287 39.0988 27.6608 39.0815 28.4756 39.0815H40.1429C40.9577 39.0815 41.7898 39.0815 42.6047 39.0643C43.7142 39.0297 44.789 38.9088 45.8812 38.6497C47.7708 38.2005 49.5045 37.3541 51.0127 36.1448C54.0639 33.7091 55.8322 30.0296 55.8322 26.1255C55.8322 22.2214 54.0639 18.5419 51.0127 16.1061ZM45.3091 29.615C44.737 30.0123 44.0956 30.2541 43.4195 30.3578C42.7433 30.4614 42.0499 30.4442 41.3738 30.4442H27.2448C26.5513 30.4442 25.8752 30.4614 25.1991 30.3578C24.5057 30.2541 23.8816 30.0123 23.3095 29.615C22.1653 28.8203 21.4718 27.5247 21.4718 26.1255C21.4718 24.7262 22.1653 23.4306 23.3095 22.636C23.8816 22.2387 24.523 21.9968 25.1991 21.8932C25.8752 21.7895 26.5687 21.8068 27.2448 21.8068H41.3738C42.0672 21.8068 42.7433 21.7895 43.4195 21.8932C44.1129 21.9968 44.737 22.2387 45.3091 22.636C46.4533 23.4306 47.1467 24.7262 47.1467 26.1255C47.1641 27.5247 46.4706 28.8203 45.3091 29.615Z" fill="white"/>
<path d="M119.248 25.9873C119.248 26.2982 119.248 26.6092 119.231 26.9028C119.213 27.0929 119.196 27.3002 119.161 27.4902C119.092 27.8529 118.971 28.1984 118.78 28.5094C118.295 29.2695 117.428 29.6495 116.561 29.6668C115.677 29.6841 114.827 29.3213 114.359 28.5267C114.169 28.1984 114.047 27.8529 113.978 27.4902C113.891 27.0065 113.857 26.4882 113.857 26.0045C113.857 25.6763 113.839 25.3654 113.839 25.0372V23.3788V20.753H111.204V25.2272C111.204 25.659 111.204 26.0909 111.221 26.5228C111.239 26.8337 111.239 27.1619 111.273 27.4729C111.343 28.2157 111.481 28.9412 111.811 29.6322C112.504 31.0315 113.857 31.8434 115.365 32.0161C116.11 32.1025 116.873 32.0334 117.584 31.8261C118.277 31.6188 119.005 31.2733 119.508 30.7378C119.525 31.0833 119.56 31.4634 119.577 31.8089H121.883V20.753H119.248V25.9873Z" fill="white"/>
<path d="M133.394 27.4902C133.013 26.4192 132.077 25.7627 131.089 25.3827C130.534 25.1581 129.962 25.0372 129.39 24.899C129.13 24.8472 128.887 24.7953 128.627 24.7262C128.419 24.6744 128.193 24.6053 127.985 24.5189C127.76 24.4153 127.535 24.2944 127.379 24.1043C127.24 23.9489 127.171 23.7416 127.205 23.5343C127.24 23.2924 127.379 23.0851 127.569 22.9297C127.708 22.826 127.847 22.7396 128.003 22.6878C128.211 22.6014 128.419 22.5669 128.627 22.5323C129.06 22.4805 129.494 22.5151 129.91 22.6014C130.551 22.7396 131.141 22.9815 131.695 23.327C132.129 22.7224 132.579 22.135 133.013 21.5304C132.129 20.8912 131.141 20.4939 130.066 20.3212C129.459 20.2348 128.852 20.2175 128.263 20.3039C127.795 20.373 127.344 20.4766 126.911 20.6667C126.338 20.9085 125.818 21.254 125.42 21.755C125.125 22.1005 124.917 22.5151 124.796 22.9469C124.639 23.4824 124.639 24.0525 124.813 24.6053C124.969 25.1063 125.264 25.5209 125.645 25.8664C126.46 26.5746 127.621 26.8337 128.609 27.041C128.956 27.1101 129.303 27.1792 129.65 27.2829C129.927 27.3693 130.222 27.4556 130.464 27.6111C130.655 27.732 130.846 27.8875 130.967 28.0775C131.071 28.2503 131.123 28.4403 131.106 28.6303C131.089 28.8203 131.019 28.9758 130.898 29.1313C130.759 29.304 130.586 29.425 130.395 29.5286C130.135 29.6495 129.858 29.7186 129.58 29.7532C129.199 29.805 128.783 29.7877 128.401 29.7359C127.968 29.6841 127.569 29.5804 127.153 29.4422C126.529 29.2177 125.992 28.8894 125.472 28.4921C125.004 29.114 124.535 29.7359 124.067 30.3578C124.9 31.0488 125.853 31.5497 126.893 31.8607C127.465 32.0162 128.055 32.1198 128.661 32.1371C129.147 32.1544 129.615 32.1198 130.1 32.0507C130.707 31.9471 131.314 31.757 131.851 31.4288C132.25 31.187 132.579 30.8933 132.874 30.5305C133.238 30.0641 133.464 29.5113 133.55 28.924C133.602 28.4403 133.568 27.9566 133.394 27.4902Z" fill="white"/>
<path d="M86.7428 29.4077C86.136 29.5459 85.4772 29.5286 84.8704 29.3386C84.2637 29.1486 83.7436 28.7685 83.3622 28.2503C82.9981 27.732 82.8074 27.1101 82.7728 26.4882C82.7381 25.8664 82.8594 25.2099 83.1542 24.6571C83.4662 24.0698 83.9169 23.6725 84.5237 23.4133C84.7838 23.3097 85.0438 23.2233 85.3212 23.1888C85.6852 23.137 86.0146 23.1197 86.3787 23.1715C87.0201 23.2406 87.6096 23.4824 88.147 23.8279C88.6844 23.1542 89.2045 22.4805 89.7419 21.8241C88.8231 21.0985 87.7829 20.6839 86.6387 20.563C85.5119 20.4421 84.3504 20.6148 83.3102 21.0985C82.27 21.5995 81.4379 22.3769 80.8831 23.3961C80.3457 24.398 80.1203 25.5554 80.1723 26.6783C80.2243 27.8011 80.5711 28.924 81.2298 29.8568C81.8886 30.8069 82.8248 31.4807 83.9169 31.8434C84.9918 32.2062 86.1707 32.2753 87.2802 32.0335C88.3897 31.7916 89.4299 31.2561 90.2273 30.4269C89.6206 29.805 89.0311 29.1831 88.4244 28.5612C87.9216 28.9758 87.3495 29.2695 86.7428 29.4077Z" fill="white"/>
<path d="M108.361 14.8969H105.587V31.8261H108.361V14.8969Z" fill="white"/>
<path d="M99.9009 25.9873C99.9009 26.2982 99.9009 26.6092 99.8836 26.9028C99.8663 27.0929 99.8489 27.3002 99.8142 27.4902C99.7449 27.8529 99.6235 28.1984 99.4329 28.5094C98.9474 29.2695 98.0806 29.6495 97.2138 29.6668C96.3297 29.6841 95.4802 29.3213 95.0121 28.5267C94.8214 28.1984 94.7001 27.8529 94.6307 27.4902C94.544 27.0065 94.5094 26.4882 94.5094 26.0045C94.5094 25.6763 94.492 25.3654 94.492 25.0372V23.3788V20.753H91.8569V25.2272C91.8569 25.659 91.8569 26.0909 91.8743 26.5228C91.8916 26.8337 91.8916 27.1619 91.9263 27.4729C91.9956 28.2157 92.1343 28.9412 92.4637 29.6322C93.1571 31.0315 94.5094 31.8434 96.0176 32.0161C96.7631 32.1025 97.5259 32.0334 98.2366 31.8261C98.9301 31.6188 99.6582 31.2733 100.161 30.7378C100.178 31.0833 100.213 31.4634 100.23 31.8089H102.467V20.753H99.9009V25.9873Z" fill="white"/>
</svg>
