<svg width="211" height="60" viewBox="0 0 211 60" fill="none" xmlns="http://www.w3.org/2000/svg">
<path fill-rule="evenodd" clip-rule="evenodd" d="M20 0C8.9541 0 0 8.9541 0 20V40C0 51.0459 8.9541 60 20 60H191C202.046 60 211 51.0459 211 40V20C211 8.9541 202.046 0 191 0H20ZM50.3105 40L47.0557 18.2998H41.1035L35.957 30.1104L30.8418 18.2998H24.8594L21.5732 40H27.6494L29.3232 27.5381L35.0586 40.0615H36.8252L42.5908 27.5068L44.2656 40H50.3105ZM70.0137 31.4746C70.0137 26.5771 66.293 22.7324 60.8994 22.7324C55.6299 22.7324 51.8164 26.5146 51.8164 31.6299C51.8164 36.7451 55.6602 40.5576 60.8994 40.5576C65.084 40.5576 68.4941 38.1709 69.6729 34.3574H63.9062C63.3799 35.3496 62.2324 35.9385 60.8994 35.9385C59.0703 35.9385 57.8613 34.9473 57.4893 33.0244H69.9199C69.957 32.71 69.9834 32.4062 69.999 32.0996C70.0088 31.8936 70.0137 31.6865 70.0137 31.4746ZM60.8994 27.2588C62.6357 27.2588 63.8447 28.1582 64.3408 29.832H57.582C57.7803 29.1182 58.1084 28.5449 58.5498 28.1221C58.6729 28.0039 58.8047 27.8975 58.9453 27.8037C59.1572 27.6621 59.3867 27.5479 59.6348 27.4609C59.6963 27.4395 59.7588 27.4199 59.8223 27.4014L59.9355 27.3711C60.0303 27.3477 60.127 27.3281 60.2266 27.3115C60.4404 27.2764 60.665 27.2588 60.8994 27.2588ZM79.5244 33.0557C79.5244 34.2334 80.2686 34.9775 81.4775 34.9775H83.6787V40H79.7109C76.0215 40 73.7588 37.7363 73.7588 34.0166V27.7236H70.6895V26.3594L78.1914 18.3926H79.4004V23.2598H83.5859V27.7236H79.5244V33.0557ZM99.7451 23.2598L99.1562 24.5615C97.793 23.415 96.0254 22.7637 94.042 22.7637C88.9268 22.7637 85.2686 26.4531 85.2686 31.6299C85.2686 36.8379 88.9268 40.5576 94.042 40.5576C95.9941 40.5576 97.7305 39.9375 99.0947 38.8223L99.5908 40H104.055V23.2598H99.7451ZM94.8164 35.4736C92.6465 35.4736 91.0654 33.8311 91.0654 31.6299C91.0654 29.46 92.6465 27.8477 94.8164 27.8477C96.9863 27.8477 98.5674 29.46 98.5674 31.6299C98.5674 33.8311 96.9863 35.4736 94.8164 35.4736ZM115.382 33.1797L118.513 23.2598H124.65L117.924 40H112.716L105.896 23.2598H112.22L115.382 33.1797ZM143.003 31.4746C143.003 26.5771 139.282 22.7324 133.889 22.7324C128.619 22.7324 124.806 26.5146 124.806 31.6299C124.806 36.7451 128.649 40.5576 133.889 40.5576C138.073 40.5576 141.483 38.1709 142.662 34.3574H136.896C136.684 34.7568 136.371 35.0908 135.986 35.3477C135.416 35.7285 134.686 35.9385 133.889 35.9385C132.06 35.9385 130.851 34.9473 130.479 33.0244H142.909C142.939 32.7734 142.962 32.5293 142.978 32.2852C142.994 32.0176 143.003 31.75 143.003 31.4746ZM133.889 27.2588C135.625 27.2588 136.834 28.1582 137.33 29.832H130.571C131.037 28.1582 132.215 27.2588 133.889 27.2588ZM150.4 25.1201C151.578 23.7559 153.004 23.1982 154.988 23.1982H156.538V28.4678H154.275C152.26 28.4678 151.392 29.3672 151.392 31.5059V40H145.626V23.2598H149.501L150.4 25.1201ZM165.092 40.5576C169.556 40.5576 172.501 38.2637 172.501 34.7607C172.501 30.5957 169.082 30 166.429 29.5391L166.332 29.5215C164.751 29.2432 163.479 28.9951 163.479 28.0645C163.479 27.7354 163.592 27.4629 163.792 27.2578C164.062 26.9795 164.494 26.8252 165.029 26.8252C166.053 26.8252 166.766 27.3213 166.766 28.375H172.19C172.129 24.9961 169.339 22.7324 165.092 22.7324C160.813 22.7324 157.931 24.9023 157.931 28.251C157.931 32.3115 161.372 33.0869 163.976 33.5205C165.588 33.7686 166.858 34.0479 166.858 35.0088C166.858 35.877 166.053 36.3105 165.216 36.3105C164.131 36.3105 163.263 35.7529 163.263 34.5127H157.714C157.775 38.1396 160.534 40.5576 165.092 40.5576ZM183.325 22.7324C188.719 22.7324 192.439 26.5771 192.439 31.4746C192.439 31.7109 192.434 31.9404 192.421 32.1699C192.413 32.3145 192.402 32.458 192.39 32.6035C192.377 32.7422 192.362 32.8818 192.346 33.0244H179.915C180.287 34.9473 181.496 35.9385 183.325 35.9385C183.457 35.9385 183.586 35.9326 183.714 35.9219C183.931 35.9023 184.141 35.8672 184.343 35.8164C184.618 35.7471 184.878 35.6504 185.116 35.5273C185.313 35.4258 185.497 35.3057 185.663 35.1689C185.938 34.9424 186.166 34.6699 186.332 34.3574H192.099C190.92 38.1709 187.51 40.5576 183.325 40.5576C178.086 40.5576 174.242 36.7451 174.242 31.6299C174.242 26.5146 178.056 22.7324 183.325 22.7324ZM186.767 29.832C186.271 28.1582 185.062 27.2588 183.325 27.2588C181.651 27.2588 180.474 28.1582 180.008 29.832H186.767Z" fill="white"/>
</svg>
