<svg width="85" height="60" viewBox="0 0 85 60" fill="none" xmlns="http://www.w3.org/2000/svg">
<path fill-rule="evenodd" clip-rule="evenodd" d="M20 0C8.9541 0 0 8.9541 0 20V40C0 51.0459 8.9541 60 20 60H65C76.0459 60 85 51.0459 85 40V20C85 8.9541 76.0459 0 65 0H20ZM70.4482 32.4902C69.3799 39.7686 63.7246 44.7119 56.3672 44.7119C47.9434 44.7119 41.6543 38.4629 41.6543 30.1963C41.6543 21.8906 47.9434 15.6416 56.3672 15.6416C63.6055 15.6416 69.2217 20.4277 70.3691 27.4277H62.6172C61.668 24.6201 59.2949 22.7607 56.3672 22.7607C52.4521 22.7607 49.5645 25.9248 49.5645 30.1963C49.5645 34.4678 52.4521 37.5928 56.3672 37.5928C59.4531 37.5928 61.8652 35.5752 62.6562 32.4902H70.4482ZM17.5859 16.3145H29.3721C35.2656 16.3145 39.6562 20.5459 39.6562 26.3203C39.6562 32.1348 35.2656 36.3672 29.3721 36.3672H25.2197V44H17.5859V16.3145ZM25.2197 29.7217H28.4629C30.4795 29.7217 31.7852 28.3379 31.7852 26.3604C31.7852 24.3828 30.4795 22.998 28.4629 22.998H25.2197V29.7217Z" fill="white"/>
</svg>
