<svg width="242" height="244" viewBox="0 0 242 244" fill="none" xmlns="http://www.w3.org/2000/svg">
<path fill-rule="evenodd" clip-rule="evenodd" d="M43.5142 38.125C39.6972 18.3 54.9653 0 74.8139 0C92.3722 0 106.877 14.4875 106.877 32.025V71.675C111.457 71.675 116.038 70.9125 120.618 70.9125C125.199 70.9125 129.016 70.9125 133.596 71.675V32.025C133.596 14.4875 148.101 0 165.659 0C185.508 0 200.776 18.3 197.722 38.125L189.325 84.6375C219.098 97.6 242 120.475 242 148.688V166.225C242 189.862 226.732 209.688 204.593 222.65C182.454 236.375 153.445 244 120.618 244C87.7918 244 58.7823 236.375 36.6435 222.65C15.2681 209.688 0 189.862 0 166.225V148.688C0 120.475 22.1388 97.6 51.9117 84.6375L43.5142 38.125ZM177.874 90.7375L187.798 35.8375C190.088 22.1125 180.164 9.15 165.659 9.15C153.445 9.15 143.52 19.0625 143.52 31.2625V81.5875C140.467 80.825 136.65 80.825 133.596 80.825C129.016 80.825 125.199 80.0625 120.618 80.0625C116.038 80.0625 111.457 80.0625 106.877 80.825C103.823 80.825 100.006 81.5875 96.9527 81.5875V32.025C96.9527 19.825 87.0284 9.9125 74.8139 9.9125C61.0726 9.9125 50.3849 22.875 53.4385 36.6L63.3628 91.5C31.2997 103.7 9.92429 125.05 9.92429 149.45V166.987C9.92429 204.35 59.5457 234.85 120.618 234.85C181.691 234.85 231.312 204.35 231.312 166.987V149.45C232.076 124.288 210.7 102.937 177.874 90.7375Z" fill="white"/>
<path fill-rule="evenodd" clip-rule="evenodd" d="M51.8192 34.4081C48.6831 20.3125 59.6594 7 73.7717 7C86.316 7 100.508 17.1801 100.508 29.7096V74.3934C104.519 73.9928 107.483 75.4242 110.576 76.918C113.53 78.3442 116.601 79.8272 120.813 79.8272C124.555 79.8272 127.385 78.4111 130.175 77.0158C133.23 75.4875 136.235 73.984 140.333 74.3934V29.7096C140.333 17.1801 154.526 7 167.07 7C181.182 7 192.159 20.3125 189.807 34.4081L179.614 90.7904C212.543 103.32 235.28 125.246 235.28 150.305C235.28 188.676 184.318 220 121.597 220C58.8753 220 7.91406 188.676 7.91406 150.305C7.91406 125.246 29.8666 103.32 62.7954 90.7904L51.8192 34.4081ZM89.4475 144.734C89.4475 154.914 83.9594 163.528 76.9032 163.528C69.847 163.528 64.3589 154.914 64.3589 144.734C64.3589 134.554 69.847 125.94 76.9032 125.94C83.9594 125.94 89.4475 134.554 89.4475 144.734ZM163.928 163.528C170.985 163.528 176.473 154.914 176.473 144.734C176.473 134.554 170.985 125.94 163.928 125.94C156.872 125.94 151.384 134.554 151.384 144.734C151.384 154.914 156.872 163.528 163.928 163.528Z" fill="white"/>
</svg>
