<svg width="139" height="144" viewBox="0 0 139 144" fill="none" xmlns="http://www.w3.org/2000/svg">
<g clip-path="url(#clip0)">
<path fill-rule="evenodd" clip-rule="evenodd" d="M0.462045 92.681L9.77947 51.6625C12.2886 40.6124 22.1203 29.2504 37.0923 29.2504H101.906C112.864 29.2504 125.791 36.5639 129.22 51.6625L138.537 92.681C141.067 103.816 132.908 114.498 121.853 114.498C117.155 114.498 112.736 111.905 110.321 107.733L103.144 95.343C101.917 93.2226 99.6726 91.9065 97.2865 91.9065H41.7139C39.3278 91.9065 37.0827 93.2237 35.8557 95.3441L28.6794 107.732C26.2637 111.905 21.8446 114.498 17.1414 114.498C6.10277 114.498 -2.06933 103.827 0.462045 92.681ZM86.9446 64.7966H91.5959V69.6152C91.5959 71.9443 93.4189 73.8329 95.6682 73.8329C97.9164 73.8329 99.7394 71.9443 99.7394 69.6152V64.7966H104.391C106.639 64.7966 108.462 62.9081 108.462 60.579C108.462 58.2488 106.639 56.3602 104.391 56.3602H99.7394V51.5416C99.7394 49.2125 97.9164 47.324 95.6682 47.324C93.4189 47.324 91.5959 49.2125 91.5959 51.5416V56.3602H86.9446C84.6964 56.3602 82.8734 58.2488 82.8734 60.579C82.8734 62.9081 84.6964 64.7966 86.9446 64.7966ZM52.0547 64.7966C54.3018 64.7966 56.1259 62.907 56.1259 60.579C56.1259 58.2499 54.3008 56.3602 52.0547 56.3602C49.8064 56.3602 47.9824 58.2499 47.9824 60.579C47.9824 62.907 49.8064 64.7966 52.0547 64.7966ZM43.3311 73.8329C45.5783 73.8329 47.4034 71.9432 47.4034 69.6152C47.4034 67.2872 45.5783 65.3965 43.3311 65.3965C41.0839 65.3965 39.2599 67.2872 39.2599 69.6152C39.2599 71.9432 41.0839 73.8329 43.3311 73.8329ZM43.3311 55.7604C45.5783 55.7604 47.4034 53.8707 47.4034 51.5416C47.4034 49.2136 45.5783 47.324 43.3311 47.324C41.0839 47.324 39.2599 49.2136 39.2599 51.5416C39.2599 53.8707 41.0839 55.7604 43.3311 55.7604ZM34.6086 64.7966C36.8558 64.7966 38.6809 62.907 38.6809 60.579C38.6809 58.2499 36.8558 56.3602 34.6086 56.3602C32.3614 56.3602 30.5374 58.2499 30.5374 60.579C30.5374 62.907 32.3614 64.7966 34.6086 64.7966Z" fill="black"/>
</g>
<defs>
<clipPath id="clip0">
<rect width="139" height="144" fill="white" transform="matrix(-1 0 0 1 139 0)"/>
</clipPath>
</defs>
</svg>
