<svg width="274" height="274" viewBox="0 0 274 274" fill="none" xmlns="http://www.w3.org/2000/svg">
<circle cx="137" cy="137" r="137" fill="black"/>
<path d="M204.154 87.9797L217 75.69V73H172.497L140.78 151.944L104.696 73H58.0326V75.69L73.0392 93.7556C74.5016 95.0905 75.2663 97.0427 75.0718 99.0082V170.003C75.5347 172.558 74.7028 175.188 72.905 177.046L56 197.534V200.19H103.931V197.5L87.026 177.046C85.1947 175.181 84.3293 172.599 84.6982 170.003V108.594L126.773 200.224H131.663L167.841 108.594V181.588C167.841 183.513 167.841 183.909 166.58 185.17L153.566 197.762V200.458H216.705V197.768L204.16 185.485C203.06 184.654 202.49 183.258 202.725 181.903V91.562C202.49 90.2002 203.053 88.8048 204.154 87.9797V87.9797Z" fill="white"/>
</svg>
